<?xml version="1.0" encoding="UTF-8"?>
<svg width="60px" height="60px" viewBox="0 0 60 60" version="1.1" xmlns="http://www.w3.org/2000/svg" xmlns:xlink="http://www.w3.org/1999/xlink">
    <!-- Generator: Sketch 47 (45396) - http://www.bohemiancoding.com/sketch -->
    <title>no-icon-groups</title>
    <desc>Created with Sketch.</desc>
    <defs></defs>
    <g id="Page-1" stroke="none" stroke-width="1" fill="none" fill-rule="evenodd">
        <g id="iconSet" transform="translate(-22.000000, -352.000000)">
            <g id="no-icon-groups" transform="translate(22.000000, 352.000000)">
                <path d="M30,60 C46.56854,60 60,46.56854 60,30 C60,13.43146 46.56854,0 30,0 C13.43146,0 0,13.43146 0,30 C0,46.56854 13.43146,60 30,60 Z" id="Clip-2" fill="#EAEBED"></path>
                <g id="Group-12" transform="translate(17.000000, 18.000000)">
                    <path d="M14.8676469,2.52304276 C15.5732258,2.18349008 16.4556715,2 17.5102508,2 C20.6222971,2 22.2278077,3.58651704 22.2278077,6.07138927 L22.2278077,6.64302888 C22.5687371,6.78530113 22.8066524,7.11628044 22.8066524,7.49949909 L22.8066524,8.64159425 C22.8066524,9.06045733 22.5217631,9.41723021 22.1289195,9.53275083 C22.0906474,9.6303378 22.0436694,9.74866731 21.9893677,9.88330582 C21.8242696,10.292659 21.651685,10.702134 21.4798134,11.0851583 C21.3891773,11.2871453 20.8327358,12.2557898 20.7474418,12.5857654 C20.5963958,13.1701141 21.0238637,13.5453364 21.4798134,13.6910584 C24.0389196,14.5089517 25.9065801,16.3372374 25.9987611,18.3175668 C26.0545073,19.5151668 24.2368543,21.6124919 18.9601613,21.9527589 C18.751638,21.9662055 18.7115405,21.9769082 18.4921157,21.984703 C18.3585033,21.9894494 13.1248731,20.1659011 11.9745219,13.6910584 C11.6556608,11.8963236 12.6200358,8.17365174 14.8676469,2.52304276 Z" id="Path" fill="#D6D8DC"></path>
                    <path d="M5.34143389,10.90212 C4.94798389,10.01711 4.93640389,9.95111 4.74230389,9.45988 C4.67851389,9.29845 4.62332389,9.15655 4.57834389,9.0395 C4.11515389,8.90114 3.77944389,8.47308 3.77944389,7.96991 L3.77944389,6.5994 C3.77944389,6.14975 4.06943389,5.75264 4.46199389,5.57751 L4.46199389,4.88567 C4.46199389,1.90852 6.35938389,0 10.0120639,0 C13.6732939,0 15.5621339,1.90382 15.5621339,4.88567 L15.5621339,5.57163 C15.9632239,5.74236 16.2431239,6.13954 16.2431239,6.5994 L16.2431239,7.96991 C16.2431239,8.47255 15.9079639,8.90068 15.4457939,9.0393 C15.4007639,9.15641 15.3454939,9.2984 15.2816139,9.45997 C15.0873839,9.95119 14.8843439,10.44256 14.6821339,10.90219 C14.5755039,11.14457 13.9208739,12.30695 13.8205239,12.70292 C13.6428239,13.40414 14.1457239,13.8544 14.6821339,14.02927 C17.6928539,15.01074 19.8900939,17.20468 19.9985439,19.58108 C20.0700739,21.14843 17.5200439,24 9.92852389,24 C2.33699389,24 0.0854738912,21.0691 0.0059738912,19.58108 C-0.111256109,17.38677 1.49185389,14.83883 5.25954389,14.02927 C5.61492389,13.95291 6.31205389,13.65051 6.31914389,12.78558 C6.32378389,12.22028 5.73489389,11.78713 5.34143389,10.90212 Z" id="Clip-5" fill="#C4C7CD"></path>
                </g>
            </g>
        </g>
    </g>
</svg>