<?xml version="1.0" encoding="UTF-8"?>
<svg width="60px" height="60px" viewBox="0 0 60 60" version="1.1" xmlns="http://www.w3.org/2000/svg" xmlns:xlink="http://www.w3.org/1999/xlink">
    <!-- Generator: Sketch 47 (45396) - http://www.bohemiancoding.com/sketch -->
    <title>no-icon</title>
    <desc>Created with Sketch.</desc>
    <defs></defs>
    <g id="Page-1" stroke="none" stroke-width="1" fill="none" fill-rule="evenodd">
        <g id="iconSet" transform="translate(-89.000000, -352.000000)">
            <g id="no-icon" transform="translate(89.000000, 352.000000)">
                <path d="M30,60 C46.56854,60 60,46.56854 60,30 C60,13.43146 46.56854,0 30,0 C13.43146,0 0,13.43146 0,30 C0,46.56854 13.43146,60 30,60 Z" id="Clip-2" fill="#EAEBED"></path>
                <path d="M25.34143,28.90212 C24.94798,28.01711 24.9364,27.95111 24.7423,27.45988 C24.67851,27.29845 24.62332,27.15655 24.57834,27.0395 C24.11515,26.90114 23.77944,26.47308 23.77944,25.96991 L23.77944,24.5994 C23.77944,24.14975 24.06943,23.75264 24.46199,23.57751 L24.46199,22.88567 C24.46199,19.90852 26.35938,18 30.01206,18 C33.67329,18 35.56213,19.90382 35.56213,22.88567 L35.56213,23.57163 C35.96322,23.74236 36.24312,24.13954 36.24312,24.5994 L36.24312,25.96991 C36.24312,26.47255 35.90796,26.90068 35.44579,27.0393 C35.40076,27.15641 35.34549,27.2984 35.28161,27.45997 C35.08738,27.95119 34.88434,28.44256 34.68213,28.90219 C34.5755,29.14457 33.92087,30.30695 33.82052,30.70292 C33.64282,31.40414 34.14572,31.8544 34.68213,32.02927 C37.69285,33.01074 39.89009,35.20468 39.99854,37.58108 C40.07007,39.14843 37.52004,42 29.92852,42 C22.33699,42 20.08547,39.0691 20.00597,37.58108 C19.88874,35.38677 21.49185,32.83883 25.25954,32.02927 C25.61492,31.95291 26.31205,31.65051 26.31914,30.78558 C26.32378,30.22028 25.73489,29.78713 25.34143,28.90212 Z" id="Clip-5" fill="#C4C7CD"></path>
            </g>
        </g>
    </g>
</svg>