<?xml version="1.0" encoding="UTF-8"?>
<svg width="20px" height="24px" viewBox="0 0 20 24" version="1.1" xmlns="http://www.w3.org/2000/svg" xmlns:xlink="http://www.w3.org/1999/xlink">
    <!-- Generator: Sketch 47 (45396) - http://www.bohemiancoding.com/sketch -->
    <title>Icons/32/ic-contacts-act</title>
    <desc>Created with Sketch.</desc>
    <defs></defs>
    <g id="Page-1" stroke="none" stroke-width="1" fill="none" fill-rule="evenodd">
        <g id="iconSet" transform="translate(-178.000000, -624.000000)" fill="#282A48">
            <g id="tabbar-activ" transform="translate(0.000000, 617.000000)">
                <g id="contacts" transform="translate(164.000000, 0.000000)">
                    <g id="Icons/32/ic-contacts-act" transform="translate(8.000000, 3.000000)">
                        <g id="Combined-Shape">
                            <path d="M25.5,8 L25.5,25.6999999 C25.5,26.6941125 24.6941125,27.5 23.6999999,27.5 L10.5,27.5 C8.290861,27.5 6.5,25.709139 6.5,23.5 L6.5,8 C6.5,6.07806249 7.92025624,4.5 9.7,4.5 L22.3,4.5 C24.0797438,4.5 25.5,6.07806249 25.5,8 Z M8.30857623,21.4511624 C8.87268936,20.8480839 9.65788065,20.5 10.5,20.5 L23.5401798,20.5 C23.8163221,20.5 24.0401798,20.2761424 24.0401798,20 C24.0401798,19.7238576 23.8163221,19.5 23.5401798,19.5 L10.5,19.5 C9.3781716,19.5 8.3295554,19.9648631 7.57827037,20.7680421 C7.38963191,20.9697105 7.40019475,21.2861167 7.60186315,21.4747552 C7.80353154,21.6633936 8.11993777,21.6528308 8.30857623,21.4511624 Z M10.5,24 L23.4576982,24 C23.7338406,24 23.9576982,23.7761424 23.9576982,23.5 C23.9576982,23.2238576 23.7338406,23 23.4576982,23 L10.5,23 C10.2238576,23 10,23.2238576 10,23.5 C10,23.7761424 10.2238576,24 10.5,24 Z M21.5,6 L21.5,13.1333003 C21.5,13.3764738 21.3028689,13.573605 21.0596953,13.573605 C20.9653229,13.573605 20.8734474,13.5432834 20.7976138,13.4871103 L19.8928413,12.8169085 C19.3624457,12.4240229 18.6375543,12.4240229 18.1071587,12.8169085 L17.2023862,13.4871103 C17.0069823,13.6318539 16.7312383,13.5907856 16.5864947,13.3953818 C16.5303216,13.3195481 16.5,13.2276727 16.5,13.1333003 L16.5,6 C16.5,5.72385763 16.2761424,5.5 16,5.5 C15.7238576,5.5 15.5,5.72385763 15.5,6 L15.5,13.1333003 C15.5,13.442007 15.5991867,13.7425458 15.7829375,13.9906093 C16.2564162,14.6298056 17.1584175,14.7641462 17.7976138,14.2906675 L18.7023862,13.6204657 C18.8791848,13.4895038 19.1208152,13.4895038 19.2976138,13.6204657 L20.2023862,14.2906675 C20.4504498,14.4744183 20.7509885,14.573605 21.0596953,14.573605 C21.8551536,14.573605 22.5,13.9287586 22.5,13.1333003 L22.5,6 C22.5,5.72385763 22.2761424,5.5 22,5.5 C21.7238576,5.5 21.5,5.72385763 21.5,6 Z" fill-rule="nonzero"></path>
                        </g>
                    </g>
                </g>
            </g>
        </g>
    </g>
</svg>