<?xml version="1.0" encoding="UTF-8"?>
<svg width="28px" height="26px" viewBox="0 0 28 26" version="1.1" xmlns="http://www.w3.org/2000/svg" xmlns:xlink="http://www.w3.org/1999/xlink">
    <!-- Generator: Sketch 47 (45396) - http://www.bohemiancoding.com/sketch -->
    <title>Icons/32/ic-groups-act</title>
    <desc>Created with Sketch.</desc>
    <defs></defs>
    <g id="Page-1" stroke="none" stroke-width="1" fill="none" fill-rule="evenodd">
        <g id="iconSet" transform="translate(-102.000000, -624.000000)" fill="#282A48">
            <g id="tabbar-activ" transform="translate(0.000000, 617.000000)">
                <g id="groups" transform="translate(92.000000, 0.000000)">
                    <g id="Icons/32/ic-groups-act" transform="translate(8.000000, 3.000000)">
                        <g id="Combined-Shape">
                            <path d="M21.7783868,27.4685638 C21.73819,27.4719677 21.7016582,27.4747334 21.6638861,27.4770933 C19.8754217,28.6837046 16.8545197,29.5 12.9285191,29.5 C6.40547936,29.5 2.64682113,27.2307933 2.50668598,24.6077545 C2.35931476,21.8492715 4.49464705,19.326814 8.15449873,18.5404274 C8.53945568,18.4577123 8.81560396,18.2146742 8.81915808,17.7814736 C8.81957028,17.7312322 8.80757732,17.6767774 8.77887786,17.6080466 C8.7420183,17.5197736 8.681957,17.4170905 8.57722085,17.2613775 C8.64365695,17.3601492 8.32277761,16.8908546 8.23552213,16.7532216 C8.09793359,16.5361954 7.98384512,16.3285901 7.88454788,16.1052381 C7.65060915,15.5790331 7.54319682,15.3249701 7.43421867,15.0462853 C7.36051467,14.8561411 7.32046861,14.7529087 7.27728533,14.6436236 C7.24732268,14.5677964 7.21841999,14.4941671 7.19085287,14.4234782 C6.64344403,14.1575574 6.27943711,13.5987253 6.27943711,12.9699131 L6.27943711,11.5993989 C6.27943711,11.0759449 6.54611411,10.5921138 6.96199274,10.2916553 L6.96199274,9.88566712 C6.96199274,6.53282776 9.19027962,4.5 13.0120597,4.5 C15.4762929,4.5 17.274473,5.33949458 18.2433074,6.83313795 C18.9060326,6.61180862 19.6650286,6.5 20.5102508,6.5 C23.8030568,6.5 25.7278077,8.22227484 25.7278077,11.0713893 L25.7278077,11.3562885 C26.0843293,11.6209407 26.3066524,12.0398567 26.3066524,12.4994991 L26.3066524,13.6415943 C26.3066524,14.1895299 25.9907293,14.6760256 25.515141,14.9156074 C25.4951747,14.9656565 25.4744399,15.01735 25.4530742,15.0703254 C25.2780178,15.5043696 25.1039051,15.9156533 24.935992,16.2898559 C24.8983361,16.3737738 24.5590002,17.010929 24.5575748,17.0136581 C24.534716,17.0575038 24.534716,17.0575038 24.5120524,17.1013281 C24.3548758,17.4059531 24.2527811,17.6286859 24.231531,17.7108956 C24.1736892,17.9346674 24.313349,18.1129408 24.6320289,18.2147913 C27.4145262,19.1040806 29.3964101,21.1071238 29.4982202,23.2943178 C29.5909225,25.2858464 26.7153518,27.1471594 21.9923369,27.4517226 C21.9195515,27.4564161 21.8706309,27.4604362 21.7783868,27.4685638 Z M19.7431204,12.9699131 L19.7431204,11.5993989 C19.7431204,11.0658221 19.4810194,10.5794322 19.0621267,10.2817417 L19.0621267,9.88566712 C19.0621267,9.51336478 19.0346285,9.15503958 18.9795197,8.81217302 C18.9356978,8.53952992 18.6791523,8.35403363 18.4065092,8.39785547 C18.1338661,8.4416773 17.9483698,8.69822281 17.9921917,8.97086591 C18.0386957,9.26019659 18.0621267,9.56552267 18.0621267,9.88566712 L18.0621267,10.9022187 L18.3663019,11.0316919 C18.5930368,11.1282023 18.7431204,11.3507659 18.7431204,11.5993989 L18.7431204,12.9699131 C18.7431204,13.2426019 18.5616707,13.4825353 18.3021384,13.5603805 L18.0671433,13.6308658 L17.979096,13.8598605 C17.9307332,13.9856434 17.8758304,14.126414 17.8166379,14.2761144 C17.6155828,14.7845913 17.4160385,15.2653759 17.2244631,15.7008498 C17.1975379,15.7620541 16.8346427,16.4570732 16.8071611,16.5107445 C16.7791338,16.5655788 16.7791338,16.5655788 16.7511448,16.6207831 C16.5254039,17.067043 16.388852,17.3709068 16.3358407,17.5800923 C16.1035628,18.4966738 16.6608164,19.222225 17.5271634,19.5046482 C20.408376,20.4439038 22.40306,22.5002034 22.4990623,24.6038743 C22.5116511,24.8797295 22.7454812,25.0931492 23.0213365,25.0805603 C23.2971918,25.0679715 23.5106114,24.8341414 23.4980226,24.5582861 C23.380537,21.9838578 21.0782931,19.6104977 17.8371034,18.5538921 C17.4210828,18.4182722 17.2210449,18.1578203 17.3051987,17.8257446 C17.3329419,17.7162686 17.4546005,17.4455461 17.6434739,17.0721685 C17.6702623,17.019332 17.6702623,17.019332 17.6972623,16.9665074 C17.701398,16.9584305 18.0971598,16.200465 18.1398038,16.1035301 C18.3367751,15.6557906 18.5411037,15.1634788 18.7465803,14.6438196 C18.7766617,14.5677426 18.8056756,14.4938783 18.8333433,14.422977 C19.3797638,14.1567651 19.7431204,13.5980362 19.7431204,12.9699131 Z" fill-rule="nonzero"></path>
                        </g>
                    </g>
                </g>
            </g>
        </g>
    </g>
</svg>