<?xml version="1.0" encoding="UTF-8"?>
<svg width="28px" height="26px" viewBox="0 0 28 26" version="1.1" xmlns="http://www.w3.org/2000/svg" xmlns:xlink="http://www.w3.org/1999/xlink">
    <!-- Generator: Sketch 47 (45396) - http://www.bohemiancoding.com/sketch -->
    <title>Icons/32/ic-groups-nrm</title>
    <desc>Created with Sketch.</desc>
    <defs></defs>
    <g id="Page-1" stroke="none" stroke-width="1" fill="none" fill-rule="evenodd" stroke-linecap="round">
        <g id="iconSet" transform="translate(-102.000000, -525.000000)" stroke="#282A48">
            <g id="tabbar-nrm" transform="translate(0.000000, 518.000000)">
                <g id="groups" transform="translate(92.000000, 0.000000)">
                    <g id="Icons/32/ic-groups-nrm" transform="translate(8.000000, 3.000000)">
                        <g id="Path">
                            <path d="M18.1656989,7.39308676 C18.8167343,7.13692219 19.5992686,7 20.5102508,7 C23.6222971,7 25.2278077,8.58651704 25.2278077,11.0713893 L25.2278077,11.6430289 C25.5687371,11.7853011 25.8066524,12.1162804 25.8066524,12.4994991 L25.8066524,13.6415943 C25.8066524,14.0604573 25.5217631,14.4172302 25.1289195,14.5327508 C25.0906474,14.6303378 25.0436694,14.7486673 24.9893677,14.8833058 C24.8242696,15.292659 24.651685,15.702134 24.4798134,16.0851583 C24.3891773,16.2871453 23.8327358,17.2557898 23.7474418,17.5857654 C23.5963958,18.1701141 24.0238637,18.5453364 24.4798134,18.6910584 C27.0389196,19.5089517 28.9065801,21.3372374 28.9987611,23.3175668 C29.0545073,24.5151668 27.2368543,26.6124919 21.9601613,26.9527589 C21.751638,26.9662055 21.7115405,26.9769082 21.4921157,26.984703"></path>
                            <path d="M8.34143114,15.9021182 C7.94797715,15.017111 7.93640448,14.9511063 7.74229833,14.4598768 C7.6785099,14.2984457 7.62331873,14.1565524 7.57834492,14.0395034 C7.11514595,13.9011445 6.77943711,13.4730763 6.77943711,12.9699131 L6.77943711,11.5993989 C6.77943711,11.1497478 7.06943277,10.7526409 7.46199274,10.5775055 L7.46199274,9.88566712 C7.46199274,6.90851782 9.3593807,5 13.0120597,5 C16.6732907,5 18.5621267,6.90382044 18.5621267,9.88566712 L18.5621267,10.5716347 C18.9632201,10.7423614 19.2431204,11.1395365 19.2431204,11.5993989 L19.2431204,12.9699131 C19.2431204,13.4725488 18.9079566,13.9006762 18.4457877,14.039301 C18.4007617,14.1564054 18.3454934,14.2984008 18.2816091,14.459967 C18.087376,14.9511908 17.8843353,15.4425608 17.6821334,15.90219 C17.5755027,16.1445744 16.9208657,17.3069477 16.8205197,17.7029184 C16.6428186,18.4041369 17.145722,18.8544037 17.6821334,19.0292701 C20.6928465,20.010742 22.8900942,22.2046848 22.9985424,24.5810802 C23.0700695,26.1484321 20.5200449,29 12.9285191,29 C5.33699325,29 3.08547081,26.069096 3.00597396,24.5810802 C2.88874336,22.3867671 4.49185186,19.8388264 8.25953561,19.0292701 C8.61492484,18.9529082 9.31204505,18.6505086 9.31914125,17.7855756 C9.32377911,17.2202826 8.73488513,16.7871253 8.34143114,15.9021182 Z"></path>
                        </g>
                    </g>
                </g>
            </g>
        </g>
    </g>
</svg>